# xmcd
# 
# Track frame offsets:
#     150
#     9791
#     26530
#     44826
#     61623
#     81996
#     100781
#     116689
#     134533
#     149931
#     167488
#     185394
#     203134
#     220411
#     237896
# 
# Disc length: 3355
# 
# Revision: 1
# Processed by: cddbd v1.5.2PL0 Copyright (c) Steve Scherf et al.
# Submitted via: fre:ac v1.0.17
# 
DISCID=d40d190f
DTITLE=Kygo - Cloud Nine
DYEAR=2016
DGENRE=A Cappella
TTITLE0=Intro
TTITLE1=Stole the Show (feat. Parson James)
TTITLE2=Fiction (feat. Tom Odell)
TTITLE3=Raging (feat. Kodaline)
TTITLE4=Firestone (feat. Conrad Sewell)
TTITLE5=Happy Birthday (feat. John Legend)
TTITLE6=I'm In Love (feat. James Vincent McMorrow)
TTITLE7=Oasis (feat. Foxes)
TTITLE8=Not Alone (feat. Rhodes)
TTITLE9=Serious (feat. Matt Corby)
TTITLE10=Stay (feat. Maty Noyes)
TTITLE11=Nothing Left  (feat. Will Heard)
TTITLE12=Fragile (with Labrinth)
TTITLE13=Carry Me (feat. Julia Michaels)
TTITLE14=For What It's Worth (feat. Angus and Julia Stone)
EXTD=
EXTT0=
EXTT1=
EXTT2=
EXTT3=
EXTT4=
EXTT5=
EXTT6=
EXTT7=
EXTT8=
EXTT9=
EXTT10=
EXTT11=
EXTT12=
EXTT13=
EXTT14=
PLAYORDER=
